<svg xmlns="http://www.w3.org/2000/svg" viewBox="0 0 209.13 6.79"><defs><style>.cls-1{fill:#fff;}</style></defs><title>Copyright1200</title><g id="Layer_2" data-name="Layer 2"><g id="Layer_1-2" data-name="Layer 1"><path class="cls-1" d="M6,5.9a2.46,2.46,0,0,1-2.63,2c-2,0-2.9-1.42-2.9-3.2s1-3.26,2.95-3.26A2.37,2.37,0,0,1,6,3.4H4.8a1.35,1.35,0,0,0-1.44-1c-1.21,0-1.69,1.09-1.69,2.28s.43,2.3,1.73,2.3a1.38,1.38,0,0,0,1.4-1Z" transform="translate(-0.45 -1.16)"/><path class="cls-1" d="M12.83,4.62a3,3,0,0,1-3,3.25,2.92,2.92,0,0,1-3-3.23,3,3,0,0,1,3-3.23A2.91,2.91,0,0,1,12.83,4.62Zm-4.78,0c0,1.27.59,2.28,1.78,2.28s1.78-1.07,1.78-2.27-.55-2.25-1.79-2.25S8.05,3.35,8.05,4.62Z" transform="translate(-0.45 -1.16)"/><path class="cls-1" d="M14.05,1.5h2.52a1.93,1.93,0,0,1,2.18,1.91,2,2,0,0,1-2.22,2h-1.3V7.78H14.05Zm1.18,2.91h1.18c.71,0,1.14-.31,1.14-1s-.48-1-1.11-1H15.23Z" transform="translate(-0.45 -1.16)"/><path class="cls-1" d="M21.35,7.78V5.54a.3.3,0,0,0-.05-.19L19.12,1.5h1.34c.51,1,1.24,2.36,1.54,3,.28-.62,1.05-2,1.56-3H24.8L22.58,5.34a.3.3,0,0,0,0,.18V7.78Z" transform="translate(-0.45 -1.16)"/><path class="cls-1" d="M26.52,5.18v2.6H25.37V1.5H28c1.35,0,2.06.74,2.06,1.71a1.48,1.48,0,0,1-1,1.49c.38.12.84.46.84,1.57v.3a4.85,4.85,0,0,0,.09,1.21H28.92a4.45,4.45,0,0,1-.12-1.39v-.1c0-.76-.2-1.11-1.25-1.11Zm0-.95h1.22c.82,0,1.15-.31,1.15-.89s-.37-.88-1.1-.88H26.52Z" transform="translate(-0.45 -1.16)"/><path class="cls-1" d="M32.53,1.5V7.78H31.36V1.5Z" transform="translate(-0.45 -1.16)"/><path class="cls-1" d="M39.41,7.78h-.87a3.31,3.31,0,0,1-.1-.7,2.11,2.11,0,0,1-1.87.8c-1.82,0-2.82-1.38-2.82-3.16s1.08-3.31,3-3.31a2.43,2.43,0,0,1,2.66,2H38.26a1.39,1.39,0,0,0-1.5-1C35.41,2.35,35,3.46,35,4.67s.48,2.26,1.78,2.26a1.39,1.39,0,0,0,1.51-1.58V5.29H36.75v-1h2.66Z" transform="translate(-0.45 -1.16)"/><path class="cls-1" d="M40.84,1.5H42V4H44.8V1.5H46V7.78H44.8V5H42V7.78H40.84Z" transform="translate(-0.45 -1.16)"/><path class="cls-1" d="M48.86,2.48H46.92v-1H52v1H50v5.3H48.86Z" transform="translate(-0.45 -1.16)"/><path class="cls-1" d="M57.66,1.16a3.43,3.43,0,0,1,1.67.43,3.12,3.12,0,0,1,1.26,1.26,3.37,3.37,0,0,1,.46,1.7,3.42,3.42,0,0,1-.45,1.69,3.2,3.2,0,0,1-1.25,1.25,3.4,3.4,0,0,1-3.38,0,3.16,3.16,0,0,1-1.26-1.25,3.42,3.42,0,0,1-.45-1.69,3.47,3.47,0,0,1,.46-1.7A3.25,3.25,0,0,1,56,1.59,3.5,3.5,0,0,1,57.66,1.16Zm0,.67a2.82,2.82,0,0,0-1.35.34,2.58,2.58,0,0,0-1,1,2.73,2.73,0,0,0,0,2.73,2.56,2.56,0,0,0,1,1,2.73,2.73,0,0,0,2.71,0,2.56,2.56,0,0,0,1-1,2.8,2.8,0,0,0,.36-1.36A2.71,2.71,0,0,0,60,3.18a2.52,2.52,0,0,0-1-1A2.81,2.81,0,0,0,57.66,1.83Zm.82,3.22.71.24a1.59,1.59,0,0,1-.55.86,1.48,1.48,0,0,1-.93.3A1.65,1.65,0,0,1,56.47,6,1.89,1.89,0,0,1,56,4.58a2.38,2.38,0,0,1,.21-1,1.5,1.5,0,0,1,.62-.67,1.86,1.86,0,0,1,.89-.22,1.53,1.53,0,0,1,.91.26,1.6,1.6,0,0,1,.57.82l-.71.17a1,1,0,0,0-.32-.47.78.78,0,0,0-.47-.15.83.83,0,0,0-.66.3,1.48,1.48,0,0,0-.26.95,1.55,1.55,0,0,0,.25,1,.77.77,0,0,0,.61.3.8.8,0,0,0,.51-.17A1.11,1.11,0,0,0,58.48,5.05Z" transform="translate(-0.45 -1.16)"/><path class="cls-1" d="M64.17,7.78V1.29h2.76a5,5,0,0,1,1.52.17,1.53,1.53,0,0,1,.75.63,1.84,1.84,0,0,1,.28,1,1.72,1.72,0,0,1-.43,1.21,2.11,2.11,0,0,1-1.28.6,2.82,2.82,0,0,1,.7.54,6.71,6.71,0,0,1,.75,1.06L70,7.78H68.44L67.5,6.37a8.55,8.55,0,0,0-.7-1,.82.82,0,0,0-.39-.27,2.09,2.09,0,0,0-.66-.08h-.27V7.78ZM65.48,4h1A5.17,5.17,0,0,0,67.63,4,.75.75,0,0,0,68,3.68a.83.83,0,0,0,.13-.49A.74.74,0,0,0,68,2.67a.81.81,0,0,0-.5-.26c-.1,0-.42,0-.95,0h-1Z" transform="translate(-0.45 -1.16)"/><path class="cls-1" d="M70.72,7.78V1.29h4.82v1.1H72V3.83h3.26V4.92H72V6.69h3.63V7.78Z" transform="translate(-0.45 -1.16)"/><path class="cls-1" d="M76.44,5.67l1.27-.12a1.61,1.61,0,0,0,.47.94,1.42,1.42,0,0,0,.95.3,1.48,1.48,0,0,0,1-.27.8.8,0,0,0,.32-.62.61.61,0,0,0-.14-.4,1.11,1.11,0,0,0-.47-.28c-.15,0-.5-.14-1-.28a3.76,3.76,0,0,1-1.48-.64A1.7,1.7,0,0,1,76.67,3,1.67,1.67,0,0,1,77,2.06a1.68,1.68,0,0,1,.81-.66A3.21,3.21,0,0,1,79,1.18a2.77,2.77,0,0,1,1.84.53,1.88,1.88,0,0,1,.65,1.44l-1.31.05a1.08,1.08,0,0,0-.36-.72A1.35,1.35,0,0,0,79,2.26a1.45,1.45,0,0,0-.89.24.46.46,0,0,0-.21.4.5.5,0,0,0,.19.4,3.72,3.72,0,0,0,1.21.43,6.33,6.33,0,0,1,1.41.47,1.77,1.77,0,0,1,.72.66,1.94,1.94,0,0,1,.26,1,1.89,1.89,0,0,1-1.19,1.77,3.64,3.64,0,0,1-1.41.24,2.81,2.81,0,0,1-1.89-.57A2.45,2.45,0,0,1,76.44,5.67Z" transform="translate(-0.45 -1.16)"/><path class="cls-1" d="M82.82,7.78V1.29h4.82v1.1H84.13V3.83h3.26V4.92H84.13V6.69h3.63V7.78Z" transform="translate(-0.45 -1.16)"/><path class="cls-1" d="M88.88,7.78V1.29h2.76a5,5,0,0,1,1.51.17,1.55,1.55,0,0,1,.76.63,1.92,1.92,0,0,1,.28,1,1.77,1.77,0,0,1-.43,1.21,2.17,2.17,0,0,1-1.29.6,2.88,2.88,0,0,1,.71.54,7.59,7.59,0,0,1,.74,1.06l.8,1.26H93.15l-1-1.41a10.79,10.79,0,0,0-.69-1,.89.89,0,0,0-.4-.27,2,2,0,0,0-.66-.08h-.26V7.78ZM90.19,4h1A5.23,5.23,0,0,0,92.34,4a.8.8,0,0,0,.37-.28.91.91,0,0,0,.13-.49.75.75,0,0,0-.18-.52.78.78,0,0,0-.49-.26c-.11,0-.43,0-1,0h-1Z" transform="translate(-0.45 -1.16)"/><path class="cls-1" d="M96.92,7.78,94.6,1.29H96L97.66,6.1l1.59-4.81h1.39L98.32,7.78Z" transform="translate(-0.45 -1.16)"/><path class="cls-1" d="M101.31,7.78V1.29h4.82v1.1h-3.51V3.83h3.26V4.92h-3.26V6.69h3.63V7.78Z" transform="translate(-0.45 -1.16)"/><path class="cls-1" d="M107.36,1.29h2.39a4.85,4.85,0,0,1,1.24.12,2.21,2.21,0,0,1,1,.6,2.9,2.9,0,0,1,.62,1.05,4.9,4.9,0,0,1,.21,1.54A4.1,4.1,0,0,1,112.6,6a2.92,2.92,0,0,1-.69,1.15,2.47,2.47,0,0,1-.92.52,4.07,4.07,0,0,1-1.16.13h-2.47Zm1.31,1.1v4.3h1a3.68,3.68,0,0,0,.79-.06,1.4,1.4,0,0,0,.53-.27,1.43,1.43,0,0,0,.34-.63,4.16,4.16,0,0,0,.14-1.19,3.84,3.84,0,0,0-.14-1.16,1.51,1.51,0,0,0-.37-.62,1.15,1.15,0,0,0-.61-.31,6.06,6.06,0,0,0-1.07-.06Z" transform="translate(-0.45 -1.16)"/><path class="cls-1" d="M116.44,7.78V1.29h2.76a4.94,4.94,0,0,1,1.51.17,1.51,1.51,0,0,1,.76.63,1.84,1.84,0,0,1,.28,1,1.72,1.72,0,0,1-.43,1.21,2.14,2.14,0,0,1-1.28.6,3,3,0,0,1,.7.54,7.59,7.59,0,0,1,.74,1.06l.8,1.26h-1.57l-.95-1.41a10.79,10.79,0,0,0-.69-1,.86.86,0,0,0-.39-.27,2.09,2.09,0,0,0-.66-.08h-.27V7.78ZM117.75,4h1A5.23,5.23,0,0,0,119.9,4a.8.8,0,0,0,.37-.28.91.91,0,0,0,.13-.49.75.75,0,0,0-.18-.52.78.78,0,0,0-.49-.26c-.11,0-.43,0-1,0h-1Z" transform="translate(-0.45 -1.16)"/><path class="cls-1" d="M125.33,1.29h1.31V5.4a4,4,0,0,1-.15,1.24,1.68,1.68,0,0,1-.69.91,2.27,2.27,0,0,1-1.32.34A2,2,0,0,1,123,7.36a2.23,2.23,0,0,1-.52-1.58l1.24-.15a1.7,1.7,0,0,0,.16.79.7.7,0,0,0,.65.35.71.71,0,0,0,.62-.25,2,2,0,0,0,.18-1Z" transform="translate(-0.45 -1.16)"/><path class="cls-1" d="M128,1.29h2.59a8,8,0,0,1,1.15.06,1.94,1.94,0,0,1,.68.27,1.85,1.85,0,0,1,.5.54,1.51,1.51,0,0,1,.2.76,1.53,1.53,0,0,1-.25.84,1.49,1.49,0,0,1-.67.57,1.76,1.76,0,0,1,.92.59,1.6,1.6,0,0,1,.32,1,1.88,1.88,0,0,1-.21.86,1.71,1.71,0,0,1-1.44,1c-.22,0-.75,0-1.58,0H128Zm1.31,1.08v1.5h.86c.51,0,.82,0,.95,0a.89.89,0,0,0,.53-.23.69.69,0,0,0,.19-.51.68.68,0,0,0-.17-.49.78.78,0,0,0-.49-.23c-.13,0-.5,0-1.12,0Zm0,2.58V6.69h1.21a5.54,5.54,0,0,0,.9,0,.87.87,0,0,0,.48-.26.81.81,0,0,0,.18-.55.89.89,0,0,0-.14-.5.83.83,0,0,0-.41-.29,4,4,0,0,0-1.16-.1Z" transform="translate(-0.45 -1.16)"/><path class="cls-1" d="M137.06,7.78V1.29h1.32V7.78Z" transform="translate(-0.45 -1.16)"/><path class="cls-1" d="M139.64,7.78V1.29h1.27l2.66,4.34V1.29h1.22V7.78h-1.32l-2.61-4.23V7.78Z" transform="translate(-0.45 -1.16)"/><path class="cls-1" d="M147.64,7.78V2.39h-1.93V1.29h5.16v1.1H149V7.78Z" transform="translate(-0.45 -1.16)"/><path class="cls-1" d="M151.72,7.78V1.29h4.81v1.1H153V3.83h3.26V4.92H153V6.69h3.63V7.78Z" transform="translate(-0.45 -1.16)"/><path class="cls-1" d="M157.77,7.78V1.29h2.76a4.89,4.89,0,0,1,1.51.17,1.51,1.51,0,0,1,.76.63,1.84,1.84,0,0,1,.28,1,1.72,1.72,0,0,1-.43,1.21,2.11,2.11,0,0,1-1.28.6,2.82,2.82,0,0,1,.7.54,7.44,7.44,0,0,1,.75,1.06l.79,1.26H162l-.95-1.41a7.69,7.69,0,0,0-.69-1,.82.82,0,0,0-.39-.27,2.09,2.09,0,0,0-.66-.08h-.27V7.78ZM159.08,4h1A5.17,5.17,0,0,0,161.23,4a.75.75,0,0,0,.37-.28.83.83,0,0,0,.13-.49.79.79,0,0,0-.17-.52.81.81,0,0,0-.5-.26c-.1,0-.42,0-.95,0h-1Z" transform="translate(-0.45 -1.16)"/><path class="cls-1" d="M164.33,7.78V1.29h1.28l2.66,4.34V1.29h1.21V7.78h-1.31l-2.62-4.23V7.78Z" transform="translate(-0.45 -1.16)"/><path class="cls-1" d="M176.73,7.78H175.3l-.57-1.47h-2.59l-.54,1.47h-1.39l2.53-6.49h1.39Zm-2.42-2.57-.89-2.41-.88,2.41Z" transform="translate(-0.45 -1.16)"/><path class="cls-1" d="M178.21,7.78V2.39h-1.93V1.29h5.16v1.1h-1.92V7.78Z" transform="translate(-0.45 -1.16)"/><path class="cls-1" d="M182.25,7.78V1.29h1.31V7.78Z" transform="translate(-0.45 -1.16)"/><path class="cls-1" d="M184.55,4.58a4.13,4.13,0,0,1,.29-1.67,3,3,0,0,1,.61-.89,2.35,2.35,0,0,1,.84-.58,3.4,3.4,0,0,1,1.4-.26,3.05,3.05,0,0,1,2.29.89,3.38,3.38,0,0,1,.86,2.47A3.43,3.43,0,0,1,190,7a3.43,3.43,0,0,1-4.59,0A3.35,3.35,0,0,1,184.55,4.58Zm1.35,0a2.42,2.42,0,0,0,.51,1.67,1.66,1.66,0,0,0,1.29.57A1.68,1.68,0,0,0,189,6.21a2.52,2.52,0,0,0,.5-1.7A2.4,2.4,0,0,0,189,2.85a1.81,1.81,0,0,0-2.61,0A2.45,2.45,0,0,0,185.9,4.53Z" transform="translate(-0.45 -1.16)"/><path class="cls-1" d="M191.88,7.78V1.29h1.28l2.65,4.34V1.29H197V7.78h-1.31L193.1,3.55V7.78Z" transform="translate(-0.45 -1.16)"/><path class="cls-1" d="M204.27,7.78h-1.42l-.57-1.47h-2.59l-.54,1.47h-1.39l2.53-6.49h1.38Zm-2.41-2.57L201,2.8l-.88,2.41Z" transform="translate(-0.45 -1.16)"/><path class="cls-1" d="M205,7.78V1.34h1.31V6.69h3.26V7.78Z" transform="translate(-0.45 -1.16)"/></g></g></svg>