<svg xmlns="http://www.w3.org/2000/svg" viewBox="0 0 22.7 22.63"><defs><style>.cls-1{fill:#1b75b3;}.cls-2{fill:#fff;}</style></defs><title>Facebook1200</title><g id="Layer_2" data-name="Layer 2"><g id="Layer_1-2" data-name="Layer 1"><rect class="cls-1" width="22.7" height="22.63"/><path class="cls-2" d="M16.63,7.79A1.82,1.82,0,0,0,14.87,6h-7A1.82,1.82,0,0,0,6.07,7.79v7.05A1.82,1.82,0,0,0,7.83,16.6h3.52v-4H10.06V10.85h1.29v-.69a2.17,2.17,0,0,1,2-2.25h1.43V9.67H13.33a.44.44,0,0,0-.34.48v.7h1.77v1.76H13v4h1.88a1.82,1.82,0,0,0,1.76-1.76Z"/></g></g></svg>