<svg xmlns="http://www.w3.org/2000/svg" viewBox="0 0 22.7 22.63"><defs><style>.cls-1{fill:#1b75b3;}.cls-2{fill:#fff;}</style></defs><title>Instagram1200</title><g id="Layer_2" data-name="Layer 2"><g id="Layer_1-2" data-name="Layer 1"><rect class="cls-1" width="22.7" height="22.63"/><path class="cls-2" d="M13.54,5.49H9.16A3.64,3.64,0,0,0,5.52,9.13V13.5a3.64,3.64,0,0,0,3.64,3.65h4.38a3.64,3.64,0,0,0,3.64-3.65V9.13A3.64,3.64,0,0,0,13.54,5.49Zm2.55,8a2.55,2.55,0,0,1-2.55,2.55H9.16A2.55,2.55,0,0,1,6.61,13.5V9.13A2.55,2.55,0,0,1,9.16,6.58h4.38a2.55,2.55,0,0,1,2.55,2.55Z"/><path class="cls-2" d="M11.35,8.4a2.92,2.92,0,1,0,2.92,2.92A2.91,2.91,0,0,0,11.35,8.4Zm0,4.74a1.83,1.83,0,1,1,1.82-1.82A1.83,1.83,0,0,1,11.35,13.14Z"/><circle class="cls-2" cx="14.49" cy="8.18" r="0.39"/></g></g></svg>