<svg xmlns="http://www.w3.org/2000/svg" viewBox="0 0 22.7 22.63"><defs><style>.cls-1{fill:#1b75b3;}.cls-2{fill:#fff;}</style></defs><title>Linkedin1200</title><g id="Layer_2" data-name="Layer 2"><g id="Layer_1-2" data-name="Layer 1"><rect class="cls-1" width="22.7" height="22.63"/><path class="cls-2" d="M17.51,12.65V17a.19.19,0,0,1-.2.19H15.06a.19.19,0,0,1-.19-.19V13c0-1.06-.38-1.79-1.33-1.79a1.45,1.45,0,0,0-1.36,1,1.75,1.75,0,0,0-.08.64V17a.19.19,0,0,1-.2.19H9.66a.19.19,0,0,1-.2-.19c0-1.08,0-6.31,0-7.53a.19.19,0,0,1,.19-.2H11.9a.2.2,0,0,1,.2.19v.93l0,0h0v0a2.61,2.61,0,0,1,2.37-1.31c1.74,0,3,1.14,3,3.57Zm-12,4.54H7.81A.18.18,0,0,0,8,17V9.46a.19.19,0,0,0-.19-.19H5.56a.2.2,0,0,0-.19.19V17A.19.19,0,0,0,5.56,17.19Z"/><circle class="cls-2" cx="6.61" cy="6.85" r="1.41"/></g></g></svg>