<svg xmlns="http://www.w3.org/2000/svg" viewBox="0 0 22.7 22.63"><defs><style>.cls-1{fill:#1b75b3;}.cls-2{fill:#fff;}</style></defs><title>Twitter1200</title><g id="Layer_2" data-name="Layer 2"><g id="Layer_1-2" data-name="Layer 1"><rect class="cls-1" width="22.7" height="22.63"/><path class="cls-2" d="M18.1,7.27l-.93,0,.5-1.43s-1.57.58-2,.68A3.15,3.15,0,0,0,12,6.26,2.55,2.55,0,0,0,10.77,8.9,6.81,6.81,0,0,1,6.33,6.4L6,6l-.28.51a3.09,3.09,0,0,0-.33,2.08,3.41,3.41,0,0,0,.29.81l-.32-.13,0,.54a2.85,2.85,0,0,0,.49,1.69,3.39,3.39,0,0,0,.37.46L6,11.9l.2.61a3,3,0,0,0,1.53,1.77c-.72.3-1.29.49-2.24.8l-.86.29.8.44a8.62,8.62,0,0,0,2.44.89c2.37.37,5,.06,6.82-1.55a6.39,6.39,0,0,0,1.9-5.31A1.3,1.3,0,0,1,16.81,9c.33-.44,1.28-1.75,1.29-1.75Z"/></g></g></svg>